<?xml version="1.0" encoding="utf-8"?>
<!-- Generator: Adobe Illustrator 16.0.3, SVG Export Plug-In . SVG Version: 6.00 Build 0)  -->
<!DOCTYPE svg PUBLIC "-//W3C//DTD SVG 1.1//EN" "http://www.w3.org/Graphics/SVG/1.1/DTD/svg11.dtd">
<svg version="1.1" id="Layer_1" xmlns="http://www.w3.org/2000/svg" xmlns:xlink="http://www.w3.org/1999/xlink" x="0px" y="0px"
	 width="72px" height="72px" viewBox="0 0 72 72" enable-background="new 0 0 72 72" xml:space="preserve">
<g>
	<g>
		<path fill="#373A4A" d="M36,68.825c-16.702,0-30.291-13.589-30.291-30.288C5.709,21.835,19.298,8.249,36,8.249
			c16.702,0,30.291,13.588,30.291,30.289C66.291,55.236,52.702,68.825,36,68.825z M36,12.249c-14.497,0-26.291,11.793-26.291,26.289
			c0,14.495,11.794,26.288,26.291,26.288c14.498,0,26.291-11.793,26.291-26.288C62.291,24.042,50.497,12.249,36,12.249z"/>
	</g>
	<g>
		<path fill="#373A4A" d="M25.238,58.56c-0.167,0-0.337-0.041-0.492-0.13c-7.154-4.059-11.599-11.682-11.599-19.893
			c0-0.555,0.447-1,1-1c0.553,0,1,0.445,1,1c0,7.492,4.056,14.449,10.585,18.152c0.48,0.271,0.649,0.883,0.377,1.361
			C25.925,58.377,25.588,58.56,25.238,58.56z"/>
	</g>
	<g>
		<path fill="#373A4A" d="M30.938,61.397c-0.083,0-0.167-0.011-0.251-0.03c-0.427-0.109-0.845-0.23-1.261-0.363
			c-0.526-0.168-0.816-0.729-0.649-1.256c0.168-0.523,0.727-0.816,1.257-0.648c0.381,0.123,0.764,0.23,1.153,0.334
			c0.535,0.137,0.856,0.686,0.718,1.217C31.789,61.098,31.382,61.397,30.938,61.397z"/>
	</g>
	<g>
		<path fill="#F62459" d="M63.219,19.331c-0.512,0-1.021-0.194-1.412-0.584l-5.193-5.18c-0.779-0.78-0.781-2.046-0.004-2.828
			c0.779-0.782,2.049-0.786,2.828-0.004l5.193,5.18c0.781,0.78,0.783,2.046,0.004,2.828C64.244,19.133,63.73,19.331,63.219,19.331z"
			/>
	</g>
	<g>
		<path fill="#373A4A" d="M41.793,46.496c-0.492,0-0.986-0.182-1.373-0.546l-5.853-5.47c-0.4-0.377-0.687-0.902-0.687-1.453V22.174
			c0-1.104,0.896-2,2-2s2,0.896,2,2v15.99l5.226,4.877c0.805,0.758,0.871,2.022,0.11,2.826
			C42.824,46.287,42.324,46.496,41.793,46.496z"/>
	</g>
	<g>
		<path fill="#373A4A" d="M35.881,11.175c-1.104,0-2-0.896-2-2v-4c0-1.104,0.896-2,2-2s2,0.896,2,2v4
			C37.881,10.28,36.984,11.175,35.881,11.175z"/>
	</g>
</g>
<circle fill="none" stroke="#F62459" stroke-width="2" stroke-linecap="round" stroke-linejoin="round" stroke-miterlimit="10" cx="251.406" cy="0" r="29"/>
<polyline fill="none" stroke="#F62459" stroke-width="2" stroke-linecap="round" stroke-linejoin="round" stroke-miterlimit="10" points="
	251.406,-21.673 251.406,0 263.324,11.917 "/>
</svg>
